<?xml version="1.0" encoding="utf-8"?>
<!-- Generator: Adobe Illustrator 25.2.0, SVG Export Plug-In . SVG Version: 6.00 Build 0)  -->
<svg version="1.1" xmlns="http://www.w3.org/2000/svg" xmlns:xlink="http://www.w3.org/1999/xlink" x="0px" y="0px"
	 viewBox="0 0 500 500" style="enable-background:new 0 0 500 500;" xml:space="preserve">
<style type="text/css">
	.st0{fill:#1E90FF;}
	.st1{fill:#E56031;stroke:#E56031;stroke-miterlimit:10;}
	.st2{stroke:#FFFFFF;stroke-miterlimit:10;}
	.st3{fill:#FFFFFF;stroke:#1E90FF;stroke-linecap:round;stroke-linejoin:round;stroke-miterlimit:10;}
	.st4{fill:#FFFFFF;stroke:#1E90FF;stroke-miterlimit:10;}
	.st5{stroke:#1E90FF;stroke-miterlimit:10;}
	.st6{fill:#FFFFFF;}
	.st7{fill:none;stroke:#1E90FF;stroke-linecap:round;stroke-linejoin:round;stroke-miterlimit:10;}
	.st8{fill:none;stroke:#1E90FF;stroke-linecap:round;stroke-miterlimit:10;}
	.st9{font-family:'Calistoga-Regular';}
	.st10{font-size:38.3953px;}
	.st11{font-family:'Baloo2-SemiBold';}
	.st12{font-size:20.4665px;}
</style>
<g id="BACKGROUND">
</g>
<g id="OBJECTS">
</g>
<g id="TEXTS">
	<g>
		<circle class="st0" cx="256.09" cy="202.05" r="160.89"/>
		<g>
			<path class="st1" d="M251.13,241.91c-0.74,0.31-1.49,0.61-2.24,0.9l1.41,1.68L251.13,241.91z"/>
			<path class="st2" d="M194.34,214.42c18.89,30,36.11,12.78,36.11,12.78l21.11-60.55l-34.44-3.33l-25,40.55L194.34,214.42z"/>
			<path class="st3" d="M355.25,158.6l-18.15,3.42c-27.4-8.15-69.1-25.61-88.88-32.96c-25.92-9.63-45.18,10-54.07,18.89
				c-8.89,8.89-31.75,28.12-25.18,44.44c6.74,16.74,19.26,61.48,19.26,61.48s39.25-8.15,20.74-58.88
				c15.56-10.37,17.41-17.41,17.41-17.41h35.92l97.72,51.89"/>
			<path class="st4" d="M245.26,260.2l21.06,23.7c0,0,21.64-14.33,4.09-36.28l-15.27-18.22L245.26,260.2z"/>
			<path class="st0" d="M239.7,270.65l8.19,9.91c3.41,4.14,9.54,4.72,13.67,1.3c4.13-3.42,4.71-9.54,1.3-13.67l-8.18-9.91
				L239.7,270.65z"/>
			<path class="st4" d="M225.26,264.11l24.47,27.53c0,0,25.15-16.66,4.76-42.15l-17.75-21.18L225.26,264.11z"/>
			<path class="st0" d="M223.81,273.51l8.19,9.91c3.41,4.13,9.54,4.72,13.67,1.3c4.13-3.41,4.71-9.54,1.3-13.67l-8.19-9.91
				L223.81,273.51z"/>
			<path class="st4" d="M210.08,255.35l26.66,30c0,0,27.4-18.15,5.18-45.92c-20.37-8.15-25.18-10-25.18-10L210.08,255.35z"/>
			<path class="st0" d="M210.47,267.15l8.19,9.91c3.41,4.14,9.53,4.72,13.67,1.3c4.13-3.41,4.71-9.54,1.3-13.67l-8.19-9.91
				L210.47,267.15z"/>
			<path class="st5" d="M243.78,242.39c0,0,41.48,29.26,94.43,7.78c52.96-21.48-46.66-48.51-46.66-48.51l-37.4,19.62L243.78,242.39z
				"/>
			<g>
				<path d="M293.99,82.07l-15.08,27.48L177.07,295.04c6.7,3.67,13.79,6.71,21.21,9.01l94.09-171.37l21.75-39.62L293.99,82.07z"/>
				<path class="st6" d="M174.12,303.83l-1.6,25.4L194,313.09C187.04,310.63,180.39,307.51,174.12,303.83z"/>
			</g>
			<path class="st3" d="M386.72,228.68c-22.22,4.45-37.78,20.74-49.99,21.48c-39.63,1.11-48.88-28.89-57.77-23.33
				c-8.89,5.56-49.62,31.85-59.99,13.7c-10.37-18.15,48.9-63.42,48.9-63.42"/>
			<path class="st0" d="M238.86,216.52l-10.63,7.23c-4.44,3.01-5.59,9.05-2.57,13.49c3.01,4.43,9.05,5.58,13.49,2.57l10.63-7.23
				L238.86,216.52z"/>
			<path class="st0" d="M171.55,226.29l3.3,12.42c1.38,5.18,6.69,8.27,11.88,6.89c5.18-1.37,8.27-6.69,6.89-11.87l-3.3-12.42
				L171.55,226.29z"/>
			<path class="st7" d="M189.69,190.38c0,0,8.37,5.08,19.28,4.61"/>
			<path class="st7" d="M219.88,167.82c0,0,1.87,6.18,6.49,9.76"/>
			<path class="st6" d="M317.63,88.42l1.15-2.07c3.24-5.85,1.13-13.22-4.73-16.46c-5.85-3.24-13.22-1.13-16.46,4.72l-1.15,2.07
				L317.63,88.42z"/>
			<path class="st8" d="M267.86,177.11c0,0,10.77-6.99,24.69-6.71"/>
			<line class="st8" x1="240.35" y1="177.99" x2="216.34" y2="222.12"/>
		</g>
	</g>
	<g>
		<g>
			<text transform="matrix(1 0 0 1 117.0617 419.223)" class="st9 st10">Shule Kiganjani</text>
		</g>
		<text transform="matrix(1 0 0 1 141.8151 450.5384)" class="st0 st11 st12">Digital School Online</text>
	</g>
	<g>
		<g>
			<path class="st0" d="M372.03,231.71c16.09,0,16.11-25,0-25C355.95,206.71,355.92,231.71,372.03,231.71L372.03,231.71z"/>
		</g>
	</g>
	<g>
		<g>
			<path class="st0" d="M369.77,230.58c16.09,0,16.11-25,0-25C353.69,205.58,353.66,230.58,369.77,230.58L369.77,230.58z"/>
		</g>
	</g>
	<g>
		<g>
			<path class="st0" d="M365.31,232.03c0.87,0.59,1.73,1.18,2.58,1.8c0.42,0.31,0.85,0.62,1.27,0.93c1.06,0.8,0.84,0.63-0.66-0.52
				c0.32,0.67,1.86,1.49,2.44,1.98c0.8,0.67,1.59,1.36,2.38,2.05c4.9,4.33,12.92,5.19,17.68,0c4.35-4.73,5.23-13.06,0-17.68
				c-4.13-3.65-8.51-7.04-13.07-10.14c-5.42-3.69-14.1-1.21-17.1,4.48C357.48,221.26,359.53,228.1,365.31,232.03L365.31,232.03z"/>
		</g>
	</g>
</g>
</svg>
